<?xml version="1.0" encoding="UTF-8" standalone="no"?>
<!-- Created with Inkscape (http://www.inkscape.org/) -->

<svg
   width="14.392151mm"
   height="14.287521mm"
   viewBox="0 0 14.392151 14.287521"
   version="1.1"
   id="svg46409"
   inkscape:export-filename="teleportPotion.svg"
   inkscape:export-xdpi="96"
   inkscape:export-ydpi="96"
   xmlns:inkscape="http://www.inkscape.org/namespaces/inkscape"
   xmlns:sodipodi="http://sodipodi.sourceforge.net/DTD/sodipodi-0.dtd"
   xmlns="http://www.w3.org/2000/svg"
   xmlns:svg="http://www.w3.org/2000/svg">
  <sodipodi:namedview
     id="namedview46411"
     pagecolor="#505050"
     bordercolor="#eeeeee"
     borderopacity="1"
     inkscape:showpageshadow="0"
     inkscape:pageopacity="0"
     inkscape:pagecheckerboard="0"
     inkscape:deskcolor="#505050"
     inkscape:document-units="mm"
     showgrid="false" />
  <defs
     id="defs46406" />
  <g
     inkscape:label="Ebene 1"
     inkscape:groupmode="layer"
     id="layer1"
     transform="translate(-68.147424,-62.732229)">
    <path
       d="m 73.921695,76.119082 c -1.155347,0.330553 -2.085975,0.40005 -3.259314,0.0092 0.05433,0.315384 0.136172,0.609247 0.227189,0.89147 h 3.944761 C 74.491784,76.72236 74.185573,76.425321 73.921695,76.11911 Z m -3.23215,-1.588911 c -0.07585,0.358069 -0.100189,0.688269 -0.09102,0.997655 1.131006,0.430389 1.895123,0.409223 2.956278,0.124178 -0.218369,-0.312208 -0.394053,-0.636411 -0.512233,-0.979311 -0.991659,0.285045 -1.679928,0.172861 -2.353028,-0.142522 m 3.941586,-1.309864 c -0.363714,0.318558 -0.764117,0.615597 -1.179336,0.897467 0.212019,1.031169 1.012472,1.922639 2.240492,2.90195 h 2.525888 c -1.734255,-0.964142 -2.868436,-2.2225 -3.587044,-3.799417 m -3.377494,-0.200025 c -0.178859,0.345722 -0.315384,0.670278 -0.418395,0.973314 0.390878,0.2032 0.882297,0.269875 1.358195,0.248708 0.139347,-0.318558 0.297039,-0.661105 0.442736,-1.00965 -0.467078,0.05468 -0.952147,-0.04233 -1.382536,-0.212372 m -0.257881,-0.651933 -0.309386,0.04551 c -0.964494,1.109839 -1.876778,3.129139 -1.462617,4.605867 h 1.095728 c -0.337255,-1.143353 -0.501297,-2.640895 0.676275,-4.651375 m 2.061986,-0.578909 c -0.436739,0.188031 -0.885472,0.330553 -1.328208,0.433564 -0.07267,0.109009 -0.139347,0.215195 -0.2032,0.318206 0.448733,0.160867 0.955322,0.212372 1.337028,0.08502 0.100189,-0.297039 0.166864,-0.585258 0.19438,-0.836789 m 3.501672,-5.042252 c 0.403225,0.633589 0.976489,1.118658 1.82245,1.66758 -0.588433,0.08784 -1.995311,-0.2032 -2.35585,-0.72778 -0.166863,-0.239536 0.215195,-0.645936 0.5334,-0.9398 m -8.092722,-3.825875 c 0.435681,1.408641 1.573742,3.098094 3.044472,4.295775 -1.094316,-0.06985 -2.415469,-0.460728 -3.360561,-0.767292 0.756709,1.067506 1.94557,1.604081 3.133373,2.010481 -0.757414,0.536575 -1.671109,1.082322 -3.136548,1.173338 1.656645,0.582084 3.260725,0.269875 3.982509,0.02117 -0.542925,1.058333 -3.053997,2.007306 -3.708753,2.334683 1.615017,0.127353 3.690408,-0.333375 5.063772,-0.997655 0.303389,0.746125 -0.04833,1.613253 -0.306211,2.359025 -0.0575,0.136525 -0.115006,0.269875 -0.172861,0.403225 0.154869,-0.106186 0.306211,-0.212372 0.451908,-0.321381 0.715434,-0.491066 1.449211,-0.967316 1.804106,-1.782939 0.79128,0.94615 1.901119,1.883128 3.244144,2.589389 0.527756,0.670278 0.857956,1.4859 1.037167,2.23767 0.25153,-0.578909 0.418394,-1.218848 0.293864,-1.828095 0.74295,-0.109361 1.0795,-0.900641 1.076325,-1.649589 -0.382059,0.188031 -0.457553,0.191206 -0.945798,0.248709 0,-0.306211 0.01799,-0.379236 -0.09102,-0.870303 -0.312209,0.254706 -0.636764,0.339725 -0.933803,0.357717 0.0635,-0.230364 0.09102,-0.591256 0.112183,-0.827617 -0.394052,0.215194 -0.582083,0.294217 -0.912636,0.327378 -0.01235,-0.330553 -0.0032,-0.606425 -0.12453,-0.921809 -0.897467,0.576087 -1.473553,0.04551 -2.061634,-0.645583 0.600428,-0.515408 2.922764,-0.661105 2.883606,0.215195 0.424392,-0.221192 0.569736,-0.339725 0.715433,-0.482248 0.275872,0.257881 0.4064,0.633942 0.457906,0.952148 0.281869,-0.285045 0.312208,-0.318206 0.51823,-0.721431 0.172861,0.306211 0.267053,0.515408 0.324556,0.927806 0.25788,-0.188031 0.467078,-0.397228 0.600428,-0.649112 0.227188,0.4699 0.25153,0.48507 0.376061,1.000831 0.539397,-0.397228 0.660752,-0.94615 0.691091,-1.443567 0.06068,-1.000477 -0.0092,-3.28048 -0.9398,-4.332463 0.05151,1.100313 -0.397227,2.122311 -1.024819,2.446866 -0.382058,0.14852 -2.925939,-2.262011 -4.172303,-2.828925 -0.712258,-0.309386 -1.458383,0.215195 -2.055636,0.28187 -2.291997,-0.700264 -4.215341,-1.769534 -5.864225,-3.113264 m 4.839406,-0.189089 c -0.160514,0.813858 0.1397,1.689805 1.033991,2.623255 0.339725,-0.221191 0.958145,-0.331611 1.515887,-0.24765 -1.394531,-0.676275 -2.016125,-1.42875 -2.549878,-2.375605"
       style="fill:#94c4c5;fill-opacity:1;fill-rule:nonzero;stroke:none;stroke-width:0.352778"
       id="path526" />
  </g>
</svg>
