<?xml version="1.0" encoding="UTF-8" standalone="no"?>
<!-- Created with Inkscape (http://www.inkscape.org/) -->

<svg
   width="6.35009mm"
   height="6.3496437mm"
   viewBox="0 0 6.35009 6.3496437"
   version="1.1"
   id="svg46409"
   inkscape:export-filename="guardian.svg"
   inkscape:export-xdpi="96"
   inkscape:export-ydpi="96"
   xmlns:inkscape="http://www.inkscape.org/namespaces/inkscape"
   xmlns:sodipodi="http://sodipodi.sourceforge.net/DTD/sodipodi-0.dtd"
   xmlns="http://www.w3.org/2000/svg"
   xmlns:svg="http://www.w3.org/2000/svg">
  <sodipodi:namedview
     id="namedview46411"
     pagecolor="#505050"
     bordercolor="#eeeeee"
     borderopacity="1"
     inkscape:showpageshadow="0"
     inkscape:pageopacity="0"
     inkscape:pagecheckerboard="0"
     inkscape:deskcolor="#505050"
     inkscape:document-units="mm"
     showgrid="false" />
  <defs
     id="defs46406" />
  <g
     inkscape:label="Ebene 1"
     inkscape:groupmode="layer"
     id="layer1"
     transform="translate(-63.339075,-56.687884)">
    <path
       d="m 66.514075,60.458019 c 0.198261,0 0.595136,0.79375 0.595136,0.992364 0,0.396522 0,0.396522 -0.198261,0.396522 H 66.1172 c -0.198261,0 -0.198261,0 -0.198261,-0.396875 0,-0.198261 0.396875,-0.992011 0.595136,-0.992011 M 67.7047,59.06878 c 0.438503,0 0.79375,0.3556 0.79375,0.794103 0,0.43815 -0.355247,0.793397 -0.79375,0.793397 -0.438503,0 -0.79375,-0.355247 -0.79375,-0.793397 0,-0.438503 0.355247,-0.794103 0.79375,-0.794103 m -2.38125,0 c 0.438503,0 0.79375,0.3556 0.79375,0.794103 0,0.43815 -0.355247,0.793397 -0.79375,0.793397 -0.438503,0 -0.79375,-0.355247 -0.79375,-0.79375 0,-0.43815 0.355247,-0.79375 0.79375,-0.79375 z m 1.190625,-2.380897 c -1.5875,0 -3.175,0.79375 -3.175,1.984375 0,0.79375 0.595489,1.190272 0.595489,1.984022 0,0.595489 -0.198614,0.595489 -0.198614,0.992364 0,0.198261 0.635,0.423333 1.190625,0.595136 v 0.79375 h 3.175 v -0.79375 c 0,0 1.198033,-0.369711 1.190625,-0.595136 -0.01235,-0.369711 -0.198614,-0.396875 -0.198614,-0.992364 0,-0.396875 0.603956,-1.209322 0.595489,-1.984022 0,-1.190625 -1.5875,-1.984375 -3.175,-1.984375"
       style="fill:#94c4c5;fill-opacity:1;fill-rule:nonzero;stroke:none;stroke-width:0.352778"
       id="path5744" />
  </g>
</svg>
