<?xml version="1.0" encoding="UTF-8" standalone="no"?>
<!-- Created with Inkscape (http://www.inkscape.org/) -->

<svg
   width="5.2768478mm"
   height="3.7789536mm"
   viewBox="0 0 5.2768478 3.7789536"
   version="1.1"
   id="svg46409"
   inkscape:export-filename="poison.svg"
   inkscape:export-xdpi="96"
   inkscape:export-ydpi="96"
   xmlns:inkscape="http://www.inkscape.org/namespaces/inkscape"
   xmlns:sodipodi="http://sodipodi.sourceforge.net/DTD/sodipodi-0.dtd"
   xmlns="http://www.w3.org/2000/svg"
   xmlns:svg="http://www.w3.org/2000/svg">
  <sodipodi:namedview
     id="namedview46411"
     pagecolor="#505050"
     bordercolor="#eeeeee"
     borderopacity="1"
     inkscape:showpageshadow="0"
     inkscape:pageopacity="0"
     inkscape:pagecheckerboard="0"
     inkscape:deskcolor="#505050"
     inkscape:document-units="mm"
     showgrid="false" />
  <defs
     id="defs46406" />
  <g
     inkscape:label="Ebene 1"
     inkscape:groupmode="layer"
     id="layer1"
     transform="translate(-70.62652,-66.965284)">
    <g
       id="g5432"
       transform="matrix(0.35277777,0,0,-0.35277777,71.501405,69.154975)">
      <path
         d="m 0,0 c -0.657,0 -1.928,-0.801 -1.928,-0.801 0,0 1.271,-0.797 1.928,-0.797 0.66,0 1.934,0.797 1.934,0.797 C 1.934,-0.801 0.66,0 0,0 m 7.894,0.1 c -1.439,0 -4.24,-0.997 -4.24,-0.997 0,0 0.988,-0.352 2.094,-0.639 -0.125,0.006 -0.243,0.009 -0.356,0.009 -1.872,0 -5.513,-0.788 -5.513,-0.788 0,0 3.641,-0.791 5.513,-0.791 0.658,0 1.533,0.096 2.393,0.224 C 6.929,-3.166 6.131,-3.54 6.131,-3.54 c 0,0 2.063,-0.965 3.128,-0.965 1.063,0 3.128,0.965 3.128,0.965 0,0 -1.748,0.82 -2.857,0.951 0.804,0.149 1.377,0.274 1.377,0.274 0,0 -1.124,0.243 -2.445,0.461 1.501,0.184 3.676,0.957 3.676,0.957 0,0 -2.801,0.997 -4.244,0.997 M 1.803,2.648 c -1.065,0 -3.13,-0.529 -3.13,-0.529 0,0 2.065,-0.53 3.13,-0.53 0.605,0 1.536,0.171 2.228,0.321 C 3.551,1.679 3.205,1.486 3.205,1.486 c 0,0 0.284,-0.159 0.692,-0.358 C 2.803,1.006 1.376,0.639 1.376,0.639 c 0,0 2.063,-0.53 3.128,-0.53 0.471,0 1.141,0.106 1.742,0.221 0.028,-0.003 0.059,-0.003 0.087,-0.003 0.745,0 1.976,0.567 2.652,0.907 0.131,-0.009 0.252,-0.016 0.365,-0.016 1.062,0 3.128,0.53 3.128,0.53 0,0 -2.066,0.53 -3.128,0.53 C 9.007,2.278 8.558,2.222 8.113,2.147 7.502,2.408 6.816,2.648 6.333,2.648 5.875,2.648 5.23,2.433 4.648,2.187 4.053,2.331 2.629,2.648 1.803,2.648 Z m 5.225,1.78 C 5.963,4.428 3.9,3.898 3.9,3.898 c 0,0 2.063,-0.53 3.128,-0.53 1.063,0 3.129,0.53 3.129,0.53 0,0 -2.066,0.53 -3.129,0.53 M 2.507,6.207 C 0.812,6.207 -2.48,5.21 -2.48,5.21 c 0,0 0.749,-0.227 1.713,-0.463 -0.58,-0.066 -1.51,-0.522 -1.51,-0.522 0,0 1.079,-0.53 1.637,-0.53 0.56,0 1.642,0.53 1.642,0.53 0,0 -0.258,0.126 -0.585,0.255 0.754,-0.152 1.514,-0.267 2.09,-0.267 1.359,0 3.714,0.633 4.609,0.887 0.43,-0.155 1.084,-0.364 1.495,-0.364 0.661,0 1.932,0.53 1.932,0.53 0,0 -1.271,0.529 -1.932,0.529 C 8.137,5.795 7.349,5.521 6.944,5.368 5.935,5.649 3.775,6.207 2.507,6.207"
         style="fill:#d8dbf1;fill-opacity:1;fill-rule:nonzero;stroke:none"
         id="path5434" />
    </g>
  </g>
</svg>
