<?xml version="1.0" encoding="UTF-8" standalone="no"?>
<!-- Created with Inkscape (http://www.inkscape.org/) -->

<svg
   width="4.7180481mm"
   height="4.7184029mm"
   viewBox="0 0 4.7180481 4.7184029"
   version="1.1"
   id="svg46409"
   inkscape:export-filename="guardian.svg"
   inkscape:export-xdpi="96"
   inkscape:export-ydpi="96"
   xmlns:inkscape="http://www.inkscape.org/namespaces/inkscape"
   xmlns:sodipodi="http://sodipodi.sourceforge.net/DTD/sodipodi-0.dtd"
   xmlns="http://www.w3.org/2000/svg"
   xmlns:svg="http://www.w3.org/2000/svg">
  <sodipodi:namedview
     id="namedview46411"
     pagecolor="#505050"
     bordercolor="#eeeeee"
     borderopacity="1"
     inkscape:showpageshadow="0"
     inkscape:pageopacity="0"
     inkscape:pagecheckerboard="0"
     inkscape:deskcolor="#505050"
     inkscape:document-units="mm"
     showgrid="false" />
  <defs
     id="defs46406" />
  <g
     inkscape:label="Ebene 1"
     inkscape:groupmode="layer"
     id="layer1"
     transform="translate(-70.517313,-62.419764)">
    <g
       id="g46674">
      <g
         id="g5718"
         transform="matrix(0.35277777,0,0,-0.35277777,72.876515,67.049973)">
        <path
           d="m 0,0 c -3.55,0 -6.437,2.888 -6.437,6.437 0,3.55 2.887,6.438 6.437,6.438 3.55,0 6.437,-2.888 6.437,-6.438 C 6.437,2.888 3.55,0 0,0"
           style="fill:#87807b;fill-opacity:1;fill-rule:nonzero;stroke:none"
           id="path5720" />
      </g>
      <g
         id="g5722"
         transform="matrix(0.35277777,0,0,-0.35277777,72.876339,62.419765)">
        <path
           d="m 0,0 c -3.688,0 -6.687,-3 -6.687,-6.687 0,-3.688 2.999,-6.688 6.687,-6.688 3.688,0 6.687,3 6.687,6.688 C 6.687,-3 3.688,0 0,0 m 0,-0.5 c 3.417,0 6.187,-2.77 6.187,-6.187 0,-3.418 -2.77,-6.188 -6.187,-6.188 -3.417,0 -6.187,2.77 -6.187,6.188 0,3.417 2.77,6.187 6.187,6.187"
           style="fill:#87807b;fill-opacity:1;fill-rule:nonzero;stroke:none"
           id="path5724" />
      </g>
      <g
         id="g5726"
         transform="matrix(0.35277777,0,0,-0.35277777,72.876515,63.188045)">
        <path
           d="m 0,0 c -2.486,0 -4.51,-2.023 -4.51,-4.51 0,-2.486 2.024,-4.51 4.51,-4.51 2.486,0 4.51,2.024 4.51,4.51 C 4.51,-2.023 2.486,0 0,0 m 0,-10.472 c -3.287,0 -5.962,2.675 -5.962,5.962 0,3.287 2.675,5.962 5.962,5.962 3.287,0 5.961,-2.675 5.961,-5.962 0,-3.287 -2.674,-5.962 -5.961,-5.962"
           style="fill:#e8a155;fill-opacity:1;fill-rule:nonzero;stroke:none"
           id="path5728" />
      </g>
      <g
         id="g5730"
         transform="matrix(0.35277777,0,0,-0.35277777,72.876339,66.281623)">
        <path
           d="m 0,0 c -2.349,0 -4.259,1.911 -4.259,4.26 0,2.348 1.91,4.259 4.259,4.259 2.349,0 4.26,-1.911 4.26,-4.259 C 4.26,1.911 2.349,0 0,0 m 0,10.471 c -3.425,0 -6.211,-2.786 -6.211,-6.211 0,-3.426 2.786,-6.212 6.211,-6.212 3.425,0 6.212,2.786 6.212,6.212 0,3.425 -2.787,6.211 -6.212,6.211 M 0,-0.5 c 2.629,0 4.76,2.131 4.76,4.76 C 4.76,6.888 2.629,9.019 0,9.019 -2.628,9.019 -4.759,6.888 -4.759,4.26 -4.759,1.631 -2.628,-0.5 0,-0.5 M 0,9.971 c 3.155,0 5.712,-2.557 5.712,-5.711 0,-3.155 -2.557,-5.712 -5.712,-5.712 -3.154,0 -5.711,2.557 -5.711,5.712 0,3.154 2.557,5.711 5.711,5.711"
           style="fill:#87807b;fill-opacity:1;fill-rule:nonzero;stroke:none"
           id="path5732" />
      </g>
      <g
         id="g5734"
         transform="matrix(0.35277777,0,0,-0.35277777,72.876515,66.378179)">
        <path
           d="m 0,0 c -2.5,0 -4.534,2.033 -4.534,4.533 0,2.5 2.034,4.534 4.534,4.534 2.5,0 4.533,-2.034 4.533,-4.534 C 4.533,2.033 2.5,0 0,0"
           style="fill:#e8a155;fill-opacity:1;fill-rule:nonzero;stroke:none"
           id="path5736" />
      </g>
      <g
         id="g5738"
         transform="matrix(0.35277777,0,0,-0.35277777,72.876339,63.091383)">
        <path
           d="m 0,0 c -2.638,0 -4.783,-2.146 -4.783,-4.784 0,-2.637 2.145,-4.783 4.783,-4.783 2.638,0 4.784,2.146 4.784,4.783 C 4.784,-2.146 2.638,0 0,0 m 0,-0.5 c 2.366,0 4.284,-1.918 4.284,-4.284 0,-2.365 -1.918,-4.283 -4.284,-4.283 -2.366,0 -4.283,1.918 -4.283,4.283 0,2.366 1.917,4.284 4.283,4.284"
           style="fill:#87807b;fill-opacity:1;fill-rule:nonzero;stroke:none"
           id="path5740" />
      </g>
    </g>
  </g>
</svg>
