<?xml version="1.0" encoding="UTF-8" standalone="no"?>
<!-- Created with Inkscape (http://www.inkscape.org/) -->

<svg
   width="6.3434753mm"
   height="6.6969299mm"
   viewBox="0 0 6.3434753 6.6969299"
   version="1.1"
   id="svg46409"
   inkscape:export-filename="potion.svg"
   inkscape:export-xdpi="96"
   inkscape:export-ydpi="96"
   xmlns:inkscape="http://www.inkscape.org/namespaces/inkscape"
   xmlns:sodipodi="http://sodipodi.sourceforge.net/DTD/sodipodi-0.dtd"
   xmlns="http://www.w3.org/2000/svg"
   xmlns:svg="http://www.w3.org/2000/svg">
  <sodipodi:namedview
     id="namedview46411"
     pagecolor="#505050"
     bordercolor="#eeeeee"
     borderopacity="1"
     inkscape:showpageshadow="0"
     inkscape:pageopacity="0"
     inkscape:pagecheckerboard="0"
     inkscape:deskcolor="#505050"
     inkscape:document-units="mm"
     showgrid="false" />
  <defs
     id="defs46406" />
  <g
     inkscape:label="Ebene 1"
     inkscape:groupmode="layer"
     id="layer1"
     transform="translate(-71.403604,-64.358572)">
    <g
       id="g5468"
       transform="matrix(0.35277777,0,0,-0.35277777,73.57227,68.614555)">
      <path
         d="m 0,0 c -3.264,0 -5.918,2.654 -5.918,5.917 0,3.263 2.654,5.917 5.918,5.917 3.263,0 5.917,-2.654 5.917,-5.917 C 5.917,2.654 3.263,0 0,0"
         style="fill:#87807b;fill-opacity:1;fill-rule:nonzero;stroke:none"
         id="path5470" />
    </g>
    <g
       id="g5472"
       transform="matrix(0.35277777,0,0,-0.35277777,73.572129,64.358573)">
      <path
         d="m 0,0 c -3.39,0 -6.147,-2.758 -6.147,-6.147 0,-3.39 2.757,-6.148 6.147,-6.148 3.39,0 6.147,2.758 6.147,6.148 C 6.147,-2.758 3.39,0 0,0 m 0,-0.46 c 3.141,0 5.687,-2.546 5.687,-5.687 0,-3.142 -2.546,-5.688 -5.687,-5.688 -3.141,0 -5.687,2.546 -5.687,5.688 0,3.141 2.546,5.687 5.687,5.687"
         style="fill:#87807b;fill-opacity:1;fill-rule:nonzero;stroke:none"
         id="path5474" />
    </g>
    <g
       id="g5476"
       transform="matrix(0.35277777,0,0,-0.35277777,73.57227,65.064729)">
      <path
         d="m 0,0 c -2.286,0 -4.146,-1.859 -4.146,-4.146 0,-2.286 1.86,-4.145 4.146,-4.145 2.286,0 4.146,1.859 4.146,4.145 C 4.146,-1.859 2.286,0 0,0 m 0,-9.625 c -3.022,0 -5.48,2.458 -5.48,5.479 0,3.022 2.458,5.48 5.48,5.48 3.021,0 5.479,-2.458 5.479,-5.48 0,-3.021 -2.458,-5.479 -5.479,-5.479"
         style="fill:#e8a155;fill-opacity:1;fill-rule:nonzero;stroke:none"
         id="path5478" />
    </g>
    <g
       id="g5480"
       transform="matrix(0.35277777,0,0,-0.35277777,73.572129,67.908576)">
      <path
         d="m 0,0 c -2.159,0 -3.916,1.756 -3.916,3.916 0,2.159 1.757,3.915 3.916,3.915 2.159,0 3.916,-1.756 3.916,-3.915 C 3.916,1.756 2.159,0 0,0 m 0,9.625 c -3.148,0 -5.709,-2.561 -5.709,-5.709 0,-3.149 2.561,-5.71 5.709,-5.71 3.148,0 5.709,2.561 5.709,5.71 C 5.709,7.064 3.148,9.625 0,9.625 M 0,-0.46 c 2.417,0 4.375,1.959 4.375,4.376 0,2.416 -1.958,4.375 -4.375,4.375 -2.417,0 -4.375,-1.959 -4.375,-4.375 0,-2.417 1.958,-4.376 4.375,-4.376 m 0,9.626 c 2.9,0 5.25,-2.351 5.25,-5.25 0,-2.9 -2.35,-5.251 -5.25,-5.251 -2.9,0 -5.25,2.351 -5.25,5.251 0,2.899 2.35,5.25 5.25,5.25"
         style="fill:#87807b;fill-opacity:1;fill-rule:nonzero;stroke:none"
         id="path5482" />
    </g>
    <g
       id="g5484"
       transform="matrix(0.35277777,0,0,-0.35277777,73.57227,67.997194)">
      <path
         d="m 0,0 c -2.299,0 -4.168,1.869 -4.168,4.167 0,2.298 1.869,4.167 4.168,4.167 2.298,0 4.167,-1.869 4.167,-4.167 C 4.167,1.869 2.298,0 0,0"
         style="fill:#e8a155;fill-opacity:1;fill-rule:nonzero;stroke:none"
         id="path5486" />
    </g>
    <g
       id="g5488"
       transform="matrix(0.35277777,0,0,-0.35277777,73.572129,64.975935)">
      <path
         d="m 0,0 c -2.425,0 -4.397,-1.973 -4.397,-4.397 0,-2.425 1.972,-4.398 4.397,-4.398 2.425,0 4.397,1.973 4.397,4.398 C 4.397,-1.973 2.425,0 0,0 m 0,-0.46 c 2.175,0 3.938,-1.763 3.938,-3.937 0,-2.175 -1.763,-3.938 -3.938,-3.938 -2.175,0 -3.938,1.763 -3.938,3.938 0,2.174 1.763,3.937 3.938,3.937"
         style="fill:#87807b;fill-opacity:1;fill-rule:nonzero;stroke:none"
         id="path5490" />
    </g>
    <g
       id="g5492"
       transform="matrix(0.35277777,0,0,-0.35277777,75.578694,70.974109)">
      <path
         d="m 0,0 c -3.263,0 -5.917,2.654 -5.917,5.917 0,3.263 2.654,5.917 5.917,5.917 3.263,0 5.917,-2.654 5.917,-5.917 C 5.917,2.654 3.263,0 0,0"
         style="fill:#87807b;fill-opacity:1;fill-rule:nonzero;stroke:none"
         id="path5494" />
    </g>
    <g
       id="g5496"
       transform="matrix(0.35277777,0,0,-0.35277777,75.578553,66.718092)">
      <path
         d="m 0,0 c -3.39,0 -6.147,-2.758 -6.147,-6.147 0,-3.39 2.757,-6.148 6.147,-6.148 3.39,0 6.147,2.758 6.147,6.148 C 6.147,-2.758 3.39,0 0,0 m 0,-0.46 c 3.142,0 5.688,-2.546 5.688,-5.687 0,-3.142 -2.546,-5.688 -5.688,-5.688 -3.141,0 -5.687,2.546 -5.687,5.688 0,3.141 2.546,5.687 5.687,5.687"
         style="fill:#87807b;fill-opacity:1;fill-rule:nonzero;stroke:none"
         id="path5498" />
    </g>
    <g
       id="g5500"
       transform="matrix(0.35277777,0,0,-0.35277777,75.578694,67.424283)">
      <path
         d="m 0,0 c -2.286,0 -4.146,-1.859 -4.146,-4.146 0,-2.286 1.86,-4.145 4.146,-4.145 2.286,0 4.146,1.859 4.146,4.145 C 4.146,-1.859 2.286,0 0,0 m 0,-9.625 c -3.021,0 -5.479,2.458 -5.479,5.479 0,3.022 2.458,5.48 5.479,5.48 3.021,0 5.479,-2.458 5.479,-5.48 0,-3.021 -2.458,-5.479 -5.479,-5.479"
         style="fill:#e8a155;fill-opacity:1;fill-rule:nonzero;stroke:none"
         id="path5502" />
    </g>
    <g
       id="g5504"
       transform="matrix(0.35277777,0,0,-0.35277777,75.578553,70.268095)">
      <path
         d="m 0,0 c -2.159,0 -3.916,1.756 -3.916,3.916 0,2.159 1.757,3.915 3.916,3.915 2.159,0 3.916,-1.756 3.916,-3.915 C 3.916,1.756 2.159,0 0,0 m 0,9.625 c -3.148,0 -5.709,-2.561 -5.709,-5.709 0,-3.149 2.561,-5.71 5.709,-5.71 3.148,0 5.71,2.561 5.71,5.71 C 5.71,7.064 3.148,9.625 0,9.625 M 0,-0.46 c 2.417,0 4.375,1.959 4.375,4.376 0,2.416 -1.958,4.375 -4.375,4.375 -2.416,0 -4.375,-1.959 -4.375,-4.375 0,-2.417 1.959,-4.376 4.375,-4.376 m 0,9.626 c 2.9,0 5.25,-2.351 5.25,-5.25 0,-2.9 -2.35,-5.251 -5.25,-5.251 -2.899,0 -5.25,2.351 -5.25,5.251 0,2.899 2.351,5.25 5.25,5.25"
         style="fill:#87807b;fill-opacity:1;fill-rule:nonzero;stroke:none"
         id="path5506" />
    </g>
    <g
       id="g5508"
       transform="matrix(0.35277777,0,0,-0.35277777,75.578694,70.356748)">
      <path
         d="m 0,0 c -2.298,0 -4.167,1.869 -4.167,4.167 0,2.298 1.869,4.167 4.167,4.167 2.298,0 4.167,-1.869 4.167,-4.167 C 4.167,1.869 2.298,0 0,0"
         style="fill:#e8a155;fill-opacity:1;fill-rule:nonzero;stroke:none"
         id="path5510" />
    </g>
    <g
       id="g5512"
       transform="matrix(0.35277777,0,0,-0.35277777,75.578553,67.335453)">
      <path
         d="m 0,0 c -2.425,0 -4.397,-1.973 -4.397,-4.397 0,-2.425 1.972,-4.398 4.397,-4.398 2.425,0 4.397,1.973 4.397,4.398 C 4.397,-1.973 2.425,0 0,0 m 0,-0.46 c 2.175,0 3.938,-1.763 3.938,-3.937 0,-2.175 -1.763,-3.938 -3.938,-3.938 -2.174,0 -3.938,1.763 -3.938,3.938 0,2.174 1.764,3.937 3.938,3.937"
         style="fill:#87807b;fill-opacity:1;fill-rule:nonzero;stroke:none"
         id="path5514" />
    </g>
  </g>
</svg>
