<?xml version="1.0" encoding="UTF-8" standalone="no"?>
<!-- Created with Inkscape (http://www.inkscape.org/) -->

<svg
   width="5.3760681mm"
   height="5.2006531mm"
   viewBox="0 0 5.3760681 5.2006531"
   version="1.1"
   id="svg46409"
   inkscape:export-filename="orc.svg"
   inkscape:export-xdpi="96"
   inkscape:export-ydpi="96"
   xmlns:inkscape="http://www.inkscape.org/namespaces/inkscape"
   xmlns:sodipodi="http://sodipodi.sourceforge.net/DTD/sodipodi-0.dtd"
   xmlns="http://www.w3.org/2000/svg"
   xmlns:svg="http://www.w3.org/2000/svg">
  <sodipodi:namedview
     id="namedview46411"
     pagecolor="#505050"
     bordercolor="#eeeeee"
     borderopacity="1"
     inkscape:showpageshadow="0"
     inkscape:pageopacity="0"
     inkscape:pagecheckerboard="0"
     inkscape:deskcolor="#505050"
     inkscape:document-units="mm"
     showgrid="false" />
  <defs
     id="defs46406" />
  <g
     inkscape:label="Ebene 1"
     inkscape:groupmode="layer"
     id="layer1"
     transform="translate(-71.923456,-64.239134)">
    <g
       id="g5400"
       transform="matrix(0.35277777,0,0,-0.35277777,73.717066,66.954886)">
      <path
         d="m 0,0 c -0.522,0 -1.014,-0.204 -1.384,-0.573 -0.762,-0.764 -0.762,-2.005 0,-2.768 0.37,-0.369 0.862,-0.573 1.384,-0.573 0.523,0 1.015,0.204 1.384,0.573 0.37,0.369 0.573,0.861 0.573,1.384 0,0.522 -0.203,1.014 -0.573,1.384 C 1.015,-0.204 0.523,0 0,0 m 0,-6.544 c -1.226,0 -2.377,0.478 -3.243,1.344 -1.788,1.788 -1.788,4.698 0,6.486 0.865,0.865 2.016,1.343 3.241,1.343 0.751,0 1.483,-0.182 2.14,-0.529 L 6.853,6.815 C 7.1,7.062 7.428,7.198 7.777,7.198 8.127,7.198 8.455,7.062 8.702,6.814 9.163,6.354 9.206,5.628 8.83,5.117 L 9.272,4.675 C 9.52,4.428 9.655,4.1 9.655,3.751 9.655,3.401 9.52,3.073 9.272,2.826 9.025,2.579 8.697,2.443 8.349,2.443 8.173,2.443 8.004,2.478 7.847,2.542 L 7.63,2.325 C 7.694,2.169 7.729,1.998 7.729,1.823 7.729,1.474 7.592,1.146 7.345,0.899 7.099,0.653 6.771,0.518 6.422,0.518 6.072,0.518 5.744,0.653 5.497,0.9 L 5.066,1.331 4.007,0.271 C 4.995,-1.5 4.702,-3.741 3.243,-5.2 2.377,-6.066 1.226,-6.544 0,-6.544"
         style="fill:#87807b;fill-opacity:1;fill-rule:nonzero;stroke:none"
         id="path5402" />
    </g>
    <g
       id="g5404"
       transform="matrix(0.35277777,0,0,-0.35277777,73.717066,68.159199)">
      <path
         d="m 0,0 c -0.389,0 -0.754,0.151 -1.03,0.427 -0.568,0.568 -0.568,1.492 0,2.06 0.276,0.275 0.641,0.427 1.03,0.427 0.389,0 0.755,-0.152 1.03,-0.427 C 1.305,2.212 1.457,1.846 1.457,1.457 1.457,1.068 1.305,0.702 1.03,0.427 0.755,0.151 0.389,0 0,0 M 7.777,11.112 C 7.295,11.112 6.841,10.925 6.5,10.583 L 2.035,6.118 c -0.639,0.279 -1.33,0.424 -2.036,0.424 -1.358,0 -2.635,-0.528 -3.596,-1.489 -1.983,-1.983 -1.983,-5.21 0,-7.193 0.961,-0.961 2.239,-1.49 3.597,-1.49 1.359,0 2.636,0.529 3.597,1.49 1.526,1.526 1.903,3.824 1.02,5.729 L 5.066,4.038 5.144,3.96 C 5.485,3.619 5.938,3.431 6.422,3.431 6.904,3.431 7.358,3.619 7.7,3.96 8.083,4.344 8.258,4.859 8.224,5.362 8.265,5.359 8.307,5.357 8.348,5.357 c 0.483,0 0.936,0.188 1.278,0.529 0.341,0.342 0.529,0.796 0.529,1.279 0,0.482 -0.188,0.936 -0.529,1.278 L 9.45,8.618 c 0.089,0.215 0.134,0.448 0.134,0.687 0,0.483 -0.188,0.937 -0.529,1.278 -0.342,0.342 -0.795,0.529 -1.278,0.529 M 0,-1 c 0.629,0 1.257,0.24 1.737,0.719 0.96,0.96 0.96,2.515 0,3.475 -0.48,0.48 -1.108,0.72 -1.737,0.72 -0.628,0 -1.257,-0.24 -1.737,-0.72 -0.959,-0.96 -0.959,-2.515 0,-3.475 C -1.257,-0.76 -0.628,-1 0,-1 m 7.777,11.112 c 0.207,0 0.413,-0.078 0.571,-0.236 0.316,-0.315 0.316,-0.826 0,-1.142 L 8.134,8.52 8.919,7.735 C 9.234,7.42 9.234,6.909 8.919,6.594 8.761,6.436 8.555,6.357 8.348,6.357 8.142,6.357 7.935,6.436 7.777,6.594 L 6.993,5.809 C 7.308,5.494 7.308,4.983 6.993,4.667 6.835,4.51 6.628,4.431 6.422,4.431 6.215,4.431 6.008,4.51 5.851,4.667 L 5.066,5.452 3.374,3.76 C 4.462,2.168 4.303,-0.02 2.89,-1.433 2.092,-2.231 1.046,-2.63 0,-2.63 c -1.045,0 -2.092,0.399 -2.89,1.197 -1.595,1.596 -1.595,4.183 0,5.779 0.798,0.798 1.843,1.196 2.888,1.196 0.773,0 1.547,-0.218 2.22,-0.654 l 4.989,4.988 c 0.157,0.158 0.364,0.236 0.57,0.236"
         style="fill:#87807b;fill-opacity:1;fill-rule:nonzero;stroke:none"
         id="path5406" />
    </g>
    <g
       id="g5408"
       transform="matrix(0.35277777,0,0,-0.35277777,73.717066,66.954886)">
      <path
         d="m 0,0 c -0.522,0 -1.014,-0.204 -1.384,-0.573 -0.762,-0.764 -0.762,-2.005 0,-2.768 0.37,-0.369 0.862,-0.573 1.384,-0.573 0.523,0 1.015,0.204 1.384,0.573 0.37,0.369 0.573,0.861 0.573,1.384 0,0.522 -0.203,1.014 -0.573,1.384 C 1.015,-0.204 0.523,0 0,0 m 0,-6.544 c -1.226,0 -2.377,0.478 -3.243,1.344 -1.788,1.788 -1.788,4.698 0,6.486 0.865,0.865 2.016,1.343 3.241,1.343 0.751,0 1.483,-0.182 2.14,-0.529 L 6.853,6.815 C 7.1,7.062 7.428,7.198 7.777,7.198 8.127,7.198 8.455,7.062 8.702,6.814 9.163,6.354 9.206,5.628 8.83,5.117 L 9.272,4.675 C 9.52,4.428 9.655,4.1 9.655,3.751 9.655,3.401 9.52,3.073 9.272,2.826 9.025,2.579 8.697,2.443 8.349,2.443 8.173,2.443 8.004,2.478 7.847,2.542 L 7.63,2.325 C 7.694,2.169 7.729,1.998 7.729,1.823 7.729,1.474 7.592,1.146 7.345,0.899 7.099,0.653 6.771,0.518 6.422,0.518 6.072,0.518 5.744,0.653 5.497,0.9 L 5.066,1.331 4.007,0.271 C 4.995,-1.5 4.702,-3.741 3.243,-5.2 2.377,-6.066 1.226,-6.544 0,-6.544"
         style="fill:#e8a155;fill-opacity:1;fill-rule:nonzero;stroke:none"
         id="path5410" />
    </g>
    <g
       id="g5412"
       transform="matrix(0.35277777,0,0,-0.35277777,73.717066,68.159199)">
      <path
         d="m 0,0 c -0.389,0 -0.754,0.151 -1.03,0.427 -0.568,0.568 -0.568,1.492 0,2.06 0.276,0.275 0.641,0.427 1.03,0.427 0.389,0 0.755,-0.152 1.03,-0.427 C 1.305,2.212 1.457,1.846 1.457,1.457 1.457,1.068 1.305,0.702 1.03,0.427 0.755,0.151 0.389,0 0,0 M 7.777,11.112 C 7.295,11.112 6.841,10.925 6.5,10.583 L 2.035,6.118 c -0.639,0.279 -1.33,0.424 -2.036,0.424 -1.358,0 -2.635,-0.528 -3.596,-1.489 -1.983,-1.983 -1.983,-5.21 0,-7.193 0.961,-0.961 2.239,-1.49 3.597,-1.49 1.359,0 2.636,0.529 3.597,1.49 1.526,1.526 1.903,3.824 1.02,5.729 L 5.066,4.038 5.144,3.96 C 5.485,3.619 5.938,3.431 6.422,3.431 6.904,3.431 7.358,3.619 7.7,3.96 8.083,4.344 8.258,4.859 8.224,5.362 8.265,5.359 8.307,5.357 8.348,5.357 c 0.483,0 0.936,0.188 1.278,0.529 0.341,0.342 0.529,0.796 0.529,1.279 0,0.482 -0.188,0.936 -0.529,1.278 L 9.45,8.618 c 0.089,0.215 0.134,0.448 0.134,0.687 0,0.483 -0.188,0.937 -0.529,1.278 -0.342,0.342 -0.795,0.529 -1.278,0.529 M 0,-1 c 0.629,0 1.257,0.24 1.737,0.719 0.96,0.96 0.96,2.515 0,3.475 -0.48,0.48 -1.108,0.72 -1.737,0.72 -0.628,0 -1.257,-0.24 -1.737,-0.72 -0.959,-0.96 -0.959,-2.515 0,-3.475 C -1.257,-0.76 -0.628,-1 0,-1 m 7.777,11.112 c 0.207,0 0.413,-0.078 0.571,-0.236 0.316,-0.315 0.316,-0.826 0,-1.142 L 8.134,8.52 8.919,7.735 C 9.234,7.42 9.234,6.909 8.919,6.594 8.761,6.436 8.555,6.357 8.348,6.357 8.142,6.357 7.935,6.436 7.777,6.594 L 6.993,5.809 C 7.308,5.494 7.308,4.983 6.993,4.667 6.835,4.51 6.628,4.431 6.422,4.431 6.215,4.431 6.008,4.51 5.851,4.667 L 5.066,5.452 3.374,3.76 C 4.462,2.168 4.303,-0.02 2.89,-1.433 2.092,-2.231 1.046,-2.63 0,-2.63 c -1.045,0 -2.092,0.399 -2.89,1.197 -1.595,1.596 -1.595,4.183 0,5.779 0.798,0.798 1.843,1.196 2.888,1.196 0.773,0 1.547,-0.218 2.22,-0.654 l 4.989,4.988 c 0.157,0.158 0.364,0.236 0.57,0.236"
         style="fill:#87807b;fill-opacity:1;fill-rule:nonzero;stroke:none"
         id="path5414" />
    </g>
  </g>
</svg>
