<?xml version="1.0" encoding="UTF-8" standalone="no"?>
<!-- Created with Inkscape (http://www.inkscape.org/) -->

<svg
   width="4.0149689mm"
   height="6.1965408mm"
   viewBox="0 0 4.0149689 6.1965408"
   version="1.1"
   id="svg46409"
   inkscape:export-filename="doubleCoin.svg"
   inkscape:export-xdpi="96"
   inkscape:export-ydpi="96"
   xmlns:inkscape="http://www.inkscape.org/namespaces/inkscape"
   xmlns:sodipodi="http://sodipodi.sourceforge.net/DTD/sodipodi-0.dtd"
   xmlns="http://www.w3.org/2000/svg"
   xmlns:svg="http://www.w3.org/2000/svg">
  <sodipodi:namedview
     id="namedview46411"
     pagecolor="#505050"
     bordercolor="#eeeeee"
     borderopacity="1"
     inkscape:showpageshadow="0"
     inkscape:pageopacity="0"
     inkscape:pagecheckerboard="0"
     inkscape:deskcolor="#505050"
     inkscape:document-units="mm"
     showgrid="false" />
  <defs
     id="defs46406" />
  <g
     inkscape:label="Ebene 1"
     inkscape:groupmode="layer"
     id="layer1"
     transform="translate(-75.803186,-64.92507)">
    <g
       id="g5448"
       transform="matrix(0.35277777,0,0,-0.35277777,79.327725,67.604059)">
      <path
         d="m 0,0 c -0.747,0.818 -1.613,1.5 -2.142,2.145 -0.316,0.385 -0.279,1.175 -0.031,2.029 0.248,0.855 0.664,1.723 0.892,2.25 l 0.196,0.449 H -1.794 L -1.796,6.869 h -0.526 l 0.268,0.725 H -6.623 L -6.314,6.869 H -6.85 L -6.852,6.873 H -7.518 L -7.361,6.441 C -7.075,5.66 -6.618,4.861 -6.364,4.111 -6.11,3.362 -6.051,2.721 -6.472,2.127 -6.943,1.462 -7.8,0.783 -8.559,-0.022 -9.318,-0.828 -9.99,-1.796 -9.99,-3.055 c 0,-3.132 2.543,-5.701 5.678,-5.701 3.134,0 5.701,2.567 5.701,5.701 C 1.389,-1.803 0.747,-0.818 0,0"
         style="fill:#87807b;fill-opacity:1;fill-rule:nonzero;stroke:none"
         id="path5450" />
    </g>
    <g
       id="g5452"
       transform="matrix(0.35277777,0,0,-0.35277777,79.211308,68.192104)">
      <path
         d="M 0,0 C -0.051,0.194 -0.156,0.366 -0.3,0.495 -0.32,0.517 -0.34,0.538 -0.362,0.557 -0.426,0.66 -0.508,0.751 -0.605,0.822 -0.629,0.85 -0.657,0.879 -0.692,0.91 -0.84,1.041 -1.087,1.182 -1.405,1.301 -2.043,1.54 -2.963,1.697 -3.979,1.697 v 0 C -4.995,1.697 -5.915,1.54 -6.552,1.301 -6.871,1.182 -7.118,1.041 -7.266,0.91 -7.353,0.833 -7.403,0.767 -7.429,0.71 -7.574,0.603 -7.691,0.459 -7.757,0.293 -7.845,0.194 -7.913,0.079 -7.952,-0.047 c -0.233,-0.399 -0.384,-0.839 -0.384,-1.344 0,-2.402 1.953,-4.376 4.355,-4.376 2.402,0 4.377,1.974 4.377,4.376 C 0.396,-0.872 0.24,-0.415 0,0"
         style="fill:#85d393;fill-opacity:1;fill-rule:nonzero;stroke:none"
         id="path5454" />
    </g>
    <g
       id="g5456"
       transform="matrix(0.35277777,0,0,-0.35277777,79.255476,71.121606)">
      <path
         d="m 0,0 h -8.191 c -0.881,0 -1.595,0.714 -1.595,1.595 v 8.191 c 0,0.881 0.714,1.595 1.595,1.595 H 0 c 0.881,0 1.595,-0.714 1.595,-1.595 V 1.595 C 1.595,0.714 0.881,0 0,0"
         style="fill:#87807b;fill-opacity:1;fill-rule:nonzero;stroke:none"
         id="path5458" />
    </g>
    <g
       id="g5460"
       transform="matrix(0.35277777,0,0,-0.35277777,78.853944,70.563723)">
      <path
         d="m 0,0 h -5.915 c -0.636,0 -1.151,0.516 -1.151,1.152 v 5.914 c 0,0.636 0.515,1.152 1.151,1.152 H 0 c 0.636,0 1.152,-0.516 1.152,-1.152 V 1.152 C 1.152,0.516 0.636,0 0,0"
         style="fill:#85d393;fill-opacity:1;fill-rule:nonzero;stroke:none"
         id="path5462" />
    </g>
    <g
       id="g5464"
       transform="matrix(0.35277777,0,0,-0.35277777,77.810392,69.106821)">
      <path
         d="m 0,0 0.708,-1.14 h -1.416 z m 1.578,1.238 c 0.47,0 0.851,-0.381 0.851,-0.851 0,-0.471 -0.381,-0.852 -0.851,-0.852 -0.47,0 -0.852,0.381 -0.852,0.852 0,0.47 0.382,0.851 0.852,0.851 m -3.159,0 c 0.47,0 0.852,-0.381 0.852,-0.851 0,-0.471 -0.382,-0.852 -0.852,-0.852 -0.47,0 -0.851,0.381 -0.851,0.852 0,0.47 0.381,0.851 0.851,0.851 m 1.582,2.086 c -1.587,0 -2.869,-1.282 -2.869,-2.869 0,-1.056 0.568,-1.977 1.417,-2.475 v -1.334 h 0.442 v 1.123 c 0.123,-0.046 0.25,-0.084 0.381,-0.113 v -1.01 h 0.442 v 0.947 c 0.062,-0.004 0.124,-0.006 0.187,-0.006 0.062,0 0.124,0.002 0.185,0.006 v -0.947 h 0.442 v 1.01 c 0.131,0.029 0.258,0.067 0.381,0.113 v -1.123 h 0.442 v 1.333 C 2.3,-1.524 2.87,-0.602 2.87,0.455 2.87,2.042 1.588,3.324 0.001,3.324 Z"
         style="fill:#ffffff;fill-opacity:1;fill-rule:nonzero;stroke:none"
         id="path5466" />
    </g>
  </g>
</svg>
