<?xml version="1.0" encoding="UTF-8" standalone="no"?>
<!-- Created with Inkscape (http://www.inkscape.org/) -->

<svg
   width="4.0149689mm"
   height="6.1965408mm"
   viewBox="0 0 4.0149689 6.1965408"
   version="1.1"
   id="svg46409"
   inkscape:export-filename="key.svg"
   inkscape:export-xdpi="96"
   inkscape:export-ydpi="96"
   xmlns:inkscape="http://www.inkscape.org/namespaces/inkscape"
   xmlns:sodipodi="http://sodipodi.sourceforge.net/DTD/sodipodi-0.dtd"
   xmlns="http://www.w3.org/2000/svg"
   xmlns:svg="http://www.w3.org/2000/svg">
  <sodipodi:namedview
     id="namedview46411"
     pagecolor="#505050"
     bordercolor="#eeeeee"
     borderopacity="1"
     inkscape:showpageshadow="0"
     inkscape:pageopacity="0"
     inkscape:pagecheckerboard="0"
     inkscape:deskcolor="#505050"
     inkscape:document-units="mm"
     showgrid="false" />
  <defs
     id="defs46406" />
  <g
     inkscape:label="Ebene 1"
     inkscape:groupmode="layer"
     id="layer1"
     transform="translate(-73.010683,-65.639006)">
    <g
       id="g1148"
       transform="matrix(0.35277777,0,0,-0.35277777,76.53522,68.318002)">
      <path
         d="m 0,0 c -0.747,0.818 -1.613,1.5 -2.142,2.145 -0.316,0.385 -0.279,1.175 -0.031,2.029 0.248,0.855 0.664,1.723 0.892,2.25 l 0.196,0.45 H -1.794 L -1.796,6.869 h -0.526 l 0.268,0.725 H -6.623 L -6.314,6.869 H -6.85 L -6.852,6.874 H -7.518 L -7.361,6.441 C -7.075,5.66 -6.618,4.861 -6.364,4.111 -6.11,3.362 -6.051,2.721 -6.472,2.127 -6.943,1.462 -7.8,0.783 -8.559,-0.022 c -0.759,-0.806 -0.43,-1.774 -0.43,-3.033 0,-3.132 1.542,-5.701 4.677,-5.701 3.134,0 4.7,2.567 4.7,5.701 C 0.388,-1.803 0.747,-0.818 0,0"
         style="fill:#87807b;fill-opacity:1;fill-rule:nonzero;stroke:none"
         id="path1150" />
    </g>
    <g
       id="g1152"
       transform="matrix(0.35277777,0,0,-0.35277777,76.418803,68.906047)">
      <path
         d="M 0,0 C -0.051,0.194 -0.156,0.366 -0.3,0.495 -0.32,0.517 -0.34,0.538 -0.362,0.557 -0.426,0.66 -0.508,0.751 -0.605,0.822 -0.628,0.85 -0.657,0.879 -0.692,0.91 -0.84,1.041 -1.087,1.182 -1.405,1.301 -2.043,1.54 -2.963,1.697 -3.979,1.697 v 0 C -4.995,1.697 -5.915,1.54 -6.552,1.301 -6.871,1.182 -7.118,1.041 -7.266,0.91 -7.353,0.833 -7.403,0.767 -7.429,0.71 -7.574,0.603 -7.691,0.459 -7.757,0.293 -7.845,0.194 -7.913,0.079 -7.952,-0.047 c -0.233,-0.399 -0.384,-0.839 -0.384,-1.344 0,-2.402 1.953,-4.376 4.355,-4.376 2.402,0 4.377,1.974 4.377,4.376 C 0.396,-0.872 0.24,-0.415 0,0"
         style="fill:#85d393;fill-opacity:1;fill-rule:nonzero;stroke:none"
         id="path1154" />
    </g>
    <g
       id="g1156"
       transform="matrix(0.35277777,0,0,-0.35277777,76.462971,71.835549)">
      <path
         d="m 0,0 h -8.191 c -0.881,0 -1.595,0.714 -1.595,1.595 l 1.001,8.191 c 0,0.881 0.714,1.595 1.595,1.595 h 6.189 c 0.881,0 1.595,-0.714 1.595,-1.595 L 1.595,1.595 C 1.595,0.714 0.881,0 0,0"
         style="fill:#87807b;fill-opacity:1;fill-rule:nonzero;stroke:none"
         id="path1158" />
    </g>
    <g
       id="g1160"
       transform="matrix(0.35277777,0,0,-0.35277777,76.061475,71.277666)">
      <path
         d="m 0,0 h -5.915 c -0.636,0 -1.151,0.516 -1.151,1.152 l 0.788,5.914 c 0,0.636 0.516,1.152 1.152,1.152 h 4.43 c 0.636,0 1.152,-0.516 1.152,-1.152 L 1.152,1.152 C 1.152,0.516 0.636,0 0,0"
         style="fill:#7fc6b9;fill-opacity:1;fill-rule:nonzero;stroke:none"
         id="path1162" />
    </g>
    <g
       id="g1164"
       transform="matrix(0.35277777,0,0,-0.35277777,74.775811,68.699567)">
      <path
         d="m 0,0 c -1.192,-1.071 -1.458,-2.785 -0.755,-4.143 -0.692,0.354 -1.916,1.197 -1.916,1.197 0.633,-1.498 2.215,-2.31 3.76,-2.049 -0.532,-0.532 -1.593,-1.446 -1.593,-1.446 1.6,0.2 2.792,1.492 2.976,3.028 0.377,-0.695 0.909,-2.102 0.909,-2.102 0.326,1.545 -0.46,3.087 -1.802,3.785 0.712,0.08 2.056,0.147 2.056,0.147 C 2.262,-0.791 0.566,-1.051 -0.51,-2.117 -0.381,-1.372 0,0 0,0 Z"
         style="fill:#ffffff;fill-opacity:1;fill-rule:nonzero;stroke:none"
         id="path1166" />
    </g>
  </g>
</svg>
