<?xml version="1.0" encoding="UTF-8" standalone="no"?>
<!-- Created with Inkscape (http://www.inkscape.org/) -->

<svg
   width="6.3499985mm"
   height="4.9321823mm"
   viewBox="0 0 6.3499985 4.9321823"
   version="1.1"
   id="svg46409"
   inkscape:export-filename="coin.svg"
   inkscape:export-xdpi="96"
   inkscape:export-ydpi="96"
   xmlns:inkscape="http://www.inkscape.org/namespaces/inkscape"
   xmlns:sodipodi="http://sodipodi.sourceforge.net/DTD/sodipodi-0.dtd"
   xmlns="http://www.w3.org/2000/svg"
   xmlns:svg="http://www.w3.org/2000/svg">
  <sodipodi:namedview
     id="namedview46411"
     pagecolor="#505050"
     bordercolor="#eeeeee"
     borderopacity="1"
     inkscape:showpageshadow="0"
     inkscape:pageopacity="0"
     inkscape:pagecheckerboard="0"
     inkscape:deskcolor="#505050"
     inkscape:document-units="mm"
     showgrid="false" />
  <defs
     id="defs46406" />
  <g
     inkscape:label="Ebene 1"
     inkscape:groupmode="layer"
     id="layer1"
     transform="translate(-71.816057,-65.737982)">
    <g
       id="g5746"
       transform="matrix(0.35277777,0,0,-0.35277777,72.569234,70.416172)">
      <path
         d="M 0,0 0.764,-0.72 H 12.967 L 13.73,0 Z m 15.865,0.977 -1.8,-1.697 h 1.8 z m -18,0 V -0.72 h 1.8 z m 17.191,6.39 V 1.25 l 0.809,0.763 v 5.354 z m -15.628,0 V 0.754 H 14.302 V 7.367 H 8.805 V 2.947 H 4.926 v 4.42 z m -1.563,0 V 2.013 L -1.326,1.25 v 6.117 z m 9,0.252 c 0.432,0 0.781,-0.302 0.781,-0.674 0,-0.246 -0.155,-0.472 -0.404,-0.59 V 4.797 H 6.488 V 6.354 C 6.239,6.473 6.084,6.699 6.084,6.945 c 0,0.372 0.35,0.674 0.781,0.674 M 5.679,3.7 H 8.051 V 8.104 H 5.679 Z m 8.595,9.561 v -5.14 h 1.538 l -0.682,5.14 z M 11.93,8.121 h 1.591 v 5.14 H 11.93 Z m -9.377,5.14 V 8.121 H 4.926 V 8.858 H 8.805 V 8.121 h 2.372 v 5.14 z M 0.209,8.121 H 1.8 v 5.14 H 0.209 Z m -1.609,5.14 -0.682,-5.14 h 1.538 v 5.14 z"
         style="fill:#87807b;fill-opacity:1;fill-rule:nonzero;stroke:none"
         id="path5748" />
    </g>
  </g>
</svg>
