<?xml version="1.0" encoding="UTF-8" standalone="no"?>
<!-- Created with Inkscape (http://www.inkscape.org/) -->

<svg
   width="5.074707mm"
   height="6.4354019mm"
   viewBox="0 0 5.074707 6.4354019"
   version="1.1"
   id="svg46409"
   inkscape:export-filename="chest.svg"
   inkscape:export-xdpi="96"
   inkscape:export-ydpi="96"
   xmlns:inkscape="http://www.inkscape.org/namespaces/inkscape"
   xmlns:sodipodi="http://sodipodi.sourceforge.net/DTD/sodipodi-0.dtd"
   xmlns="http://www.w3.org/2000/svg"
   xmlns:svg="http://www.w3.org/2000/svg">
  <sodipodi:namedview
     id="namedview46411"
     pagecolor="#505050"
     bordercolor="#eeeeee"
     borderopacity="1"
     inkscape:showpageshadow="0"
     inkscape:pageopacity="0"
     inkscape:pagecheckerboard="0"
     inkscape:deskcolor="#505050"
     inkscape:document-units="mm"
     showgrid="false" />
  <defs
     id="defs46406" />
  <g
     inkscape:label="Ebene 1"
     inkscape:groupmode="layer"
     id="layer1"
     transform="translate(-71.784944,-64.841772)">
    <path
       d="m 71.784944,70.710963 h 0.282575 v -0.243417 h -0.282575 z m 0.543631,0.566208 h 0.842786 v -0.811389 h -0.842786 z m 2.00413,-0.811741 h -0.907697 v 0.811741 h 0.907697 z M 74.586,71.277171 h 0.888647 V 70.465782 H 74.586 Z m 1.142294,0 h 0.871009 v -0.811389 h -0.871009 z m 1.131359,-1.498953 h -4.824236 v 0.0021 h -0.250473 v 0.433917 h 0.282575 v -0.0021 h 4.792134 z m -4.792134,-0.521405 h -0.282575 v 0.270228 h 0.282575 z m 3.750028,-0.908756 c -0.160161,0 -0.287161,0.127 -0.287161,0.287162 0,0.160161 0.127,0.287513 0.287161,0.287513 0.160161,0 0.287514,-0.127352 0.287514,-0.287513 0,-0.160162 -0.127353,-0.287162 -0.287514,-0.287162 z m -4.032603,-0.346075 h 0.282575 v -0.243416 h -0.282575 z m 0.543631,1.522942 h 0.842786 v -1.768122 h -0.842786 z m 2.00413,-1.768122 h -0.907697 v 1.768122 h 0.907697 z m 0.253295,0 v 1.768122 h 0.888647 v -0.472722 c -0.120297,-0.09948 -0.197908,-0.249767 -0.197908,-0.416983 0,-0.167217 0.07761,-0.3175 0.197908,-0.416984 v -0.461433 z m 1.142294,0 v 0.345369 c 0.02893,-0.0049 0.05891,-0.0078 0.08925,-0.0078 0.297392,0 0.540808,0.24377 0.540808,0.540809 0,0.297038 -0.243769,0.540808 -0.540808,0.540808 -0.03034,0 -0.06033,-0.0028 -0.08925,-0.0078 v 0.356658 h 0.870656 v -1.768122 z m -3.660775,-0.690739 h -0.282575 v 0.439208 h 0.282575 v -0.0021 h 4.792134 v -0.433917 h -4.792134 z m -0.282575,-0.253647 h 0.282575 v -0.264584 h -0.282575 z m 3.94335,-1.583972 v 1.5875 h 0.86607 c -0.0374,-0.626534 -0.2921,-1.097492 -0.659695,-1.425928 -0.06526,-0.05856 -0.134408,-0.112536 -0.206375,-0.161572 z m -2.735791,0.129116 c -0.367595,0.325967 -0.623711,0.803628 -0.659695,1.458384 h 0.838553 v -1.598437 c -0.06209,0.04304 -0.121708,0.08961 -0.178858,0.140053 M 74.586,64.844974 v 1.97097 h 0.888647 V 65.08063 C 75.199833,64.944105 74.895033,64.86473 74.586,64.844974 Z m -0.253295,-0.0032 c -0.316441,0.01305 -0.628297,0.08819 -0.907697,0.226483 v 1.747662 h 0.907697 z"
       style="fill:#87807b;fill-opacity:1;fill-rule:nonzero;stroke:none;stroke-width:0.352778"
       id="path5672" />
  </g>
</svg>
