<?xml version="1.0" encoding="UTF-8" standalone="no"?>
<!-- Created with Inkscape (http://www.inkscape.org/) -->

<svg
   width="3.9137192mm"
   height="4.132225mm"
   viewBox="0 0 3.9137192 4.132225"
   version="1.1"
   id="svg46409"
   inkscape:export-filename="wanderingMonster.svg"
   inkscape:export-xdpi="96"
   inkscape:export-ydpi="96"
   xmlns:inkscape="http://www.inkscape.org/namespaces/inkscape"
   xmlns:sodipodi="http://sodipodi.sourceforge.net/DTD/sodipodi-0.dtd"
   xmlns="http://www.w3.org/2000/svg"
   xmlns:svg="http://www.w3.org/2000/svg">
  <sodipodi:namedview
     id="namedview46411"
     pagecolor="#505050"
     bordercolor="#eeeeee"
     borderopacity="1"
     inkscape:showpageshadow="0"
     inkscape:pageopacity="0"
     inkscape:pagecheckerboard="0"
     inkscape:deskcolor="#505050"
     inkscape:document-units="mm"
     showgrid="false" />
  <defs
     id="defs46406" />
  <g
     inkscape:label="Ebene 1"
     inkscape:groupmode="layer"
     id="layer1"
     transform="translate(-75.871889,-66.183157)">
    <g
       id="g6038"
       transform="matrix(0.35277777,0,0,-0.35277777,79.692474,67.552995)">
      <path
         d="m 0,0 c -0.061,-0.002 -0.131,-0.023 -0.204,-0.065 l -4.01,-2.316 c -0.261,-0.151 -0.468,-0.508 -0.468,-0.81 v -4.304 c 0,-0.302 0.207,-0.421 0.468,-0.27 l 4.01,2.316 c 0.261,0.15 0.468,0.508 0.468,0.81 v 4.304 C 0.264,-0.118 0.157,0.004 0,0 Z m -10.566,0 c -0.158,0.004 -0.264,-0.118 -0.264,-0.335 v -4.304 c 0,-0.302 0.206,-0.66 0.468,-0.81 l 4.01,-2.316 c 0.261,-0.151 0.467,-0.032 0.467,0.27 v 4.304 c 0,0.302 -0.206,0.659 -0.467,0.81 l -4.01,2.316 c -0.074,0.042 -0.143,0.063 -0.204,0.065 z m 5.275,3.883 C -5.46,3.883 -5.628,3.845 -5.759,3.77 L -9.928,1.358 c -0.261,-0.151 -0.261,-0.39 0,-0.541 l 4.169,-2.412 c 0.261,-0.151 0.674,-0.151 0.935,0 l 4.169,2.412 c 0.262,0.151 0.262,0.39 0,0.541 L -4.824,3.77 c -0.13,0.075 -0.299,0.113 -0.467,0.113"
         style="fill:#394c65;fill-opacity:1;fill-rule:nonzero;stroke:none"
         id="path6040" />
    </g>
  </g>
</svg>
