<?xml version="1.0" encoding="UTF-8" standalone="no"?>
<!-- Created with Inkscape (http://www.inkscape.org/) -->

<svg
   width="4.2270737mm"
   height="4.6689072mm"
   viewBox="0 0 4.2270737 4.6689072"
   version="1.1"
   id="svg46409"
   inkscape:export-filename="plus.svg"
   inkscape:export-xdpi="96"
   inkscape:export-ydpi="96"
   xmlns:inkscape="http://www.inkscape.org/namespaces/inkscape"
   xmlns:sodipodi="http://sodipodi.sourceforge.net/DTD/sodipodi-0.dtd"
   xmlns="http://www.w3.org/2000/svg"
   xmlns:svg="http://www.w3.org/2000/svg">
  <sodipodi:namedview
     id="namedview46411"
     pagecolor="#505050"
     bordercolor="#eeeeee"
     borderopacity="1"
     inkscape:showpageshadow="0"
     inkscape:pageopacity="0"
     inkscape:pagecheckerboard="0"
     inkscape:deskcolor="#505050"
     inkscape:document-units="mm"
     showgrid="false" />
  <defs
     id="defs46406" />
  <g
     inkscape:label="Ebene 1"
     inkscape:groupmode="layer"
     id="layer1"
     transform="translate(-70.401315,-66.963133)">
    <g
       id="g6940"
       transform="matrix(0.35277777,0,0,-0.35277777,74.628348,68.380115)">
      <path
         d="M 0,0 C 0.006,0.455 -0.234,0.877 -0.629,1.104 L -5.448,3.877 C -5.775,4.065 -6.177,4.063 -6.502,3.872 l -4.863,-2.868 c -0.388,-0.229 -0.624,-0.648 -0.617,-1.099 l 0.075,-5.066 c 0.006,-0.437 0.24,-0.84 0.616,-1.062 l 4.878,-2.879 c 0.256,-0.151 0.573,-0.155 0.832,-0.01 l 4.864,2.708 c 0.392,0.218 0.638,0.63 0.644,1.078 z"
         style="fill:#394c65;fill-opacity:1;fill-rule:nonzero;stroke:none"
         id="path6942" />
    </g>
    <g
       id="g6944"
       transform="matrix(0.35277777,0,0,-0.35277777,74.249218,68.507609)">
      <path
         d="m 0,0 c -0.061,-0.002 -0.131,-0.023 -0.204,-0.065 l -4.01,-2.316 c -0.261,-0.151 -0.468,-0.509 -0.468,-0.81 v -4.304 c 0,-0.302 0.207,-0.421 0.468,-0.27 l 4.01,2.315 c 0.261,0.151 0.468,0.509 0.468,0.811 v 4.304 C 0.264,-0.118 0.157,0.004 0,0 Z m -9.846,0 c -0.158,0.004 -0.264,-0.118 -0.264,-0.335 v -4.304 c 0,-0.302 0.206,-0.66 0.468,-0.81 l 4.01,-2.316 c 0.261,-0.151 0.467,-0.032 0.467,0.27 v 4.304 c 0,0.302 -0.206,0.659 -0.467,0.81 l -4.01,2.316 C -9.716,-0.023 -9.785,-0.002 -9.846,0 Z m 4.915,3.523 C -5.1,3.523 -5.268,3.485 -5.399,3.41 L -9.568,0.998 c -0.261,-0.151 -0.261,-0.39 0,-0.541 l 4.169,-2.412 c 0.261,-0.151 0.674,-0.151 0.935,0 l 4.169,2.412 c 0.262,0.151 0.262,0.39 0,0.541 L -4.464,3.41 c -0.13,0.075 -0.299,0.113 -0.467,0.113 z"
         style="fill:#ffffff;fill-opacity:1;fill-rule:nonzero;stroke:none"
         id="path6946" />
    </g>
  </g>
</svg>
