<?xml version="1.0" encoding="UTF-8" standalone="no"?>
<!-- Created with Inkscape (http://www.inkscape.org/) -->

<svg
   width="5.0322647mm"
   height="5.0325928mm"
   viewBox="0 0 5.0322647 5.0325928"
   version="1.1"
   id="svg46409"
   inkscape:export-filename="range.svg"
   inkscape:export-xdpi="96"
   inkscape:export-ydpi="96"
   xmlns:inkscape="http://www.inkscape.org/namespaces/inkscape"
   xmlns:sodipodi="http://sodipodi.sourceforge.net/DTD/sodipodi-0.dtd"
   xmlns="http://www.w3.org/2000/svg"
   xmlns:svg="http://www.w3.org/2000/svg">
  <sodipodi:namedview
     id="namedview46411"
     pagecolor="#505050"
     bordercolor="#eeeeee"
     borderopacity="1"
     inkscape:showpageshadow="0"
     inkscape:pageopacity="0"
     inkscape:pagecheckerboard="0"
     inkscape:deskcolor="#505050"
     inkscape:document-units="mm"
     showgrid="false" />
  <defs
     id="defs46406">
    <clipPath
       clipPathUnits="userSpaceOnUse"
       id="clipPath7454">
      <path
         d="M 0,792 H 612 V 0 H 0 Z"
         id="path7452" />
    </clipPath>
  </defs>
  <g
     inkscape:label="Ebene 1"
     inkscape:groupmode="layer"
     id="layer1"
     transform="translate(-65.046312,-67.901922)">
    <g
       id="g7448"
       transform="matrix(0.35277777,0,0,-0.35277777,-63.068622,255.69173)">
      <g
         id="g7450"
         clip-path="url(#clipPath7454)">
        <g
           id="g7456"
           transform="translate(376.677,531.6525)">
          <path
             d="m 0,0 -4.557,-0.681 0.682,-4.557 1.239,1.675 c 1.272,-1.636 1.359,-3.979 0.066,-5.726 -1.212,-1.638 -3.279,-2.27 -5.128,-1.735 l 0.196,-1.314 c 0.866,-0.166 1.755,-0.133 2.598,0.093 1.128,0.179 2.21,0.664 3.108,1.438 -1.482,-1.647 -3.694,-2.336 -5.777,-1.939 l -1.682,-0.251 c 2.984,-1.317 6.581,-0.445 8.603,2.288 2.083,2.816 1.788,6.652 -0.527,9.116 z m -6.416,0.665 c -2.171,-0.011 -4.309,-1.011 -5.7,-2.892 -2.105,-2.844 -1.782,-6.729 0.598,-9.19 l -1.122,-1.517 4.556,0.681 -0.681,4.557 -1.3,-1.757 c -1.328,1.639 -1.438,4.027 -0.125,5.801 0.924,1.25 2.346,1.914 3.789,1.921 0.492,0.003 0.987,-0.071 1.466,-0.225 l -0.21,1.403 c -0.719,0.147 -1.444,0.152 -2.14,0.03 -1.785,-0.22 -3.435,-1.203 -4.464,-2.748 1.074,1.985 3.127,3.191 5.304,3.246 0.051,0.001 0.101,0.002 0.152,0.002 0.446,0 0.896,-0.048 1.343,-0.148 l 1.465,0.219 C -4.423,0.467 -5.423,0.67 -6.416,0.665 Z"
             style="fill:#394c65;fill-opacity:1;fill-rule:nonzero;stroke:none"
             id="path7458" />
        </g>
        <g
           id="g7460"
           transform="translate(374.2209,525.1387)">
          <path
             d="M 0,0 C 0.002,0.113 -0.058,0.218 -0.156,0.274 L -1.353,0.963 C -1.434,1.009 -1.534,1.009 -1.614,0.961 L -2.822,0.249 C -2.918,0.192 -2.977,0.088 -2.975,-0.024 l 0.019,-1.257 c 10e-4,-0.109 0.059,-0.209 0.153,-0.264 l 1.211,-0.715 c 0.063,-0.037 0.142,-0.038 0.206,-0.002 l 1.208,0.672 c 0.097,0.054 0.158,0.156 0.16,0.268 z"
             style="fill:#394c65;fill-opacity:1;fill-rule:nonzero;stroke:none"
             id="path7462" />
        </g>
        <g
           id="g7464"
           transform="translate(373.8992,524.9517)">
          <path
             d="M 0,0 C -0.014,0 -0.029,-0.005 -0.046,-0.015 L -0.942,-0.532 C -1,-0.566 -1.046,-0.646 -1.046,-0.713 v -0.962 c 0,-0.067 0.046,-0.094 0.104,-0.06 l 0.896,0.517 c 0.059,0.034 0.105,0.114 0.105,0.181 v 0.962 C 0.059,-0.026 0.035,0.001 0,0 M -2.335,0 C -2.37,0.001 -2.394,-0.026 -2.394,-0.075 v -0.962 c 0,-0.067 0.046,-0.147 0.105,-0.181 l 0.896,-0.517 c 0.058,-0.034 0.104,-0.007 0.104,0.06 v 0.962 c 0,0.067 -0.046,0.147 -0.104,0.181 l -0.896,0.517 C -2.306,-0.005 -2.321,0 -2.335,0 m 1.166,0.902 c -0.038,0 -0.076,-0.008 -0.105,-0.025 L -2.206,0.338 c -0.058,-0.033 -0.058,-0.087 0,-0.121 l 0.932,-0.539 c 0.058,-0.033 0.151,-0.033 0.209,0 l 0.932,0.539 c 0.058,0.034 0.058,0.088 0,0.121 l -0.932,0.539 c -0.029,0.017 -0.067,0.025 -0.104,0.025"
             style="fill:#ffffff;fill-opacity:1;fill-rule:nonzero;stroke:none"
             id="path7466" />
        </g>
        <g
           id="g7468"
           transform="translate(370.0594,525.888)">
          <path
             d="m 0,0 c -0.022,0 -0.043,0.006 -0.062,0.017 l -1.341,0.791 c -0.071,0.042 -0.116,0.119 -0.116,0.2 l -0.02,1.393 c -0.002,0.085 0.043,0.164 0.116,0.208 l 1.336,0.788 H 0.095 L 1.419,2.636 C 1.493,2.593 1.539,2.513 1.537,2.428 L 1.518,0.963 C 1.517,0.879 1.47,0.801 1.396,0.759 L 0.06,0.016 Z"
             style="fill:#ffffff;fill-opacity:1;fill-rule:nonzero;stroke:none"
             id="path7470" />
        </g>
        <g
           id="g7472"
           transform="translate(370.0643,529.4178)">
          <path
             d="M 0,0 C -0.051,0 -0.102,-0.013 -0.146,-0.04 L -1.483,-0.828 C -1.59,-0.891 -1.654,-1.006 -1.653,-1.13 l 0.021,-1.393 c 0.002,-0.12 0.066,-0.231 0.169,-0.292 l 1.341,-0.791 c 0.037,-0.021 0.077,-0.032 0.117,-0.032 0.039,0 0.077,0.01 0.112,0.029 l 1.337,0.744 c 0.108,0.061 0.175,0.174 0.177,0.297 l 0.02,1.464 c 0.002,0.125 -0.064,0.241 -0.173,0.303 L 0.144,-0.038 C 0.099,-0.013 0.049,0 0,0 M 0,-0.216 0.036,-0.226 1.36,-0.988 C 1.401,-1.011 1.426,-1.055 1.425,-1.101 L 1.405,-2.565 C 1.404,-2.611 1.379,-2.653 1.339,-2.676 l -1.351,-0.744 -1.341,0.791 c -0.038,0.023 -0.063,0.065 -0.064,0.109 l -0.02,1.392 c 0,0.047 0.024,0.09 0.064,0.114 l 1.336,0.788 c 0.011,0.007 0.024,0.01 0.037,0.01"
             style="fill:#ffffff;fill-opacity:1;fill-rule:nonzero;stroke:none"
             id="path7474" />
        </g>
        <g
           id="g7476"
           transform="translate(371.3491,528.1067)">
          <path
             d="m 0,0 c -0.015,0 -0.032,-0.006 -0.05,-0.016 l -0.993,-0.573 c -0.064,-0.037 -0.115,-0.126 -0.115,-0.2 v -1.065 c 0,-0.075 0.051,-0.104 0.115,-0.067 l 0.993,0.573 c 0.064,0.037 0.115,0.126 0.115,0.2 v 1.065 C 0.065,-0.029 0.039,0.001 0,0 M -2.585,0 C -2.624,0.001 -2.65,-0.029 -2.65,-0.083 v -1.065 c 0,-0.074 0.051,-0.163 0.115,-0.2 l 0.992,-0.573 c 0.065,-0.037 0.116,-0.008 0.116,0.067 v 1.065 c 0,0.074 -0.051,0.163 -0.116,0.2 l -0.992,0.573 C -2.553,-0.006 -2.57,0 -2.585,0 m 1.29,0.999 c -0.042,0 -0.083,-0.009 -0.116,-0.028 L -2.442,0.375 c -0.065,-0.038 -0.065,-0.097 0,-0.134 l 1.031,-0.597 c 0.065,-0.037 0.167,-0.037 0.232,0 l 1.031,0.597 c 0.065,0.037 0.065,0.096 0,0.134 L -1.179,0.971 C -1.211,0.99 -1.253,0.999 -1.295,0.999"
             style="fill:#394c65;fill-opacity:1;fill-rule:nonzero;stroke:none"
             id="path7478" />
        </g>
        <g
           id="g7480"
           transform="translate(367.8885,524.3167)">
          <path
             d="m 0,0 c -0.021,0 -0.043,0.006 -0.062,0.017 l -1.341,0.791 c -0.071,0.041 -0.115,0.118 -0.116,0.201 l -0.02,1.392 c -0.002,0.085 0.043,0.164 0.115,0.207 L -0.087,3.396 0.095,3.397 1.42,2.635 C 1.494,2.593 1.539,2.514 1.537,2.428 L 1.518,0.963 C 1.517,0.878 1.47,0.8 1.396,0.76 L 0.06,0.016 Z"
             style="fill:#ffffff;fill-opacity:1;fill-rule:nonzero;stroke:none"
             id="path7482" />
        </g>
        <g
           id="g7484"
           transform="translate(367.8934,527.8463)">
          <path
             d="M 0,0 C -0.051,0 -0.101,-0.013 -0.146,-0.04 L -1.483,-0.828 C -1.59,-0.891 -1.654,-1.006 -1.652,-1.13 l 0.02,-1.393 c 0.002,-0.12 0.066,-0.231 0.17,-0.292 l 1.34,-0.791 c 0.037,-0.021 0.077,-0.032 0.117,-0.032 0.039,0 0.077,0.01 0.112,0.029 l 1.337,0.744 c 0.108,0.06 0.175,0.173 0.177,0.297 l 0.02,1.464 c 0.002,0.125 -0.064,0.241 -0.173,0.303 L 0.144,-0.038 C 0.099,-0.013 0.049,0 0,0 M 0,-0.216 0.036,-0.226 1.36,-0.988 C 1.401,-1.011 1.426,-1.055 1.425,-1.101 L 1.405,-2.565 C 1.404,-2.611 1.379,-2.653 1.339,-2.676 l -1.351,-0.744 -1.341,0.791 c -0.038,0.023 -0.062,0.065 -0.063,0.109 l -0.021,1.393 c 0,0.046 0.024,0.089 0.064,0.113 l 1.337,0.788 c 0.011,0.007 0.023,0.01 0.036,0.01"
             style="fill:#ffffff;fill-opacity:1;fill-rule:nonzero;stroke:none"
             id="path7486" />
        </g>
        <g
           id="g7488"
           transform="translate(369.1784,526.5351)">
          <path
             d="m 0,0 c -0.015,0 -0.032,-0.006 -0.05,-0.016 l -0.993,-0.573 c -0.064,-0.037 -0.115,-0.126 -0.115,-0.2 v -1.065 c 0,-0.075 0.051,-0.104 0.115,-0.067 l 0.993,0.573 c 0.064,0.037 0.115,0.126 0.115,0.2 v 1.065 C 0.065,-0.029 0.039,0.001 0,0 Z M -2.585,0 C -2.624,0.001 -2.65,-0.029 -2.65,-0.083 v -1.065 c 0,-0.074 0.051,-0.163 0.115,-0.2 l 0.992,-0.573 c 0.065,-0.037 0.116,-0.008 0.116,0.067 v 1.065 c 0,0.074 -0.051,0.163 -0.116,0.2 l -0.992,0.573 C -2.553,-0.006 -2.57,0 -2.585,0 m 1.29,0.999 c -0.042,0 -0.083,-0.009 -0.116,-0.028 L -2.442,0.375 c -0.065,-0.038 -0.065,-0.097 0,-0.134 l 1.031,-0.597 c 0.065,-0.037 0.167,-0.037 0.232,0 l 1.031,0.597 c 0.065,0.037 0.065,0.096 0,0.134 L -1.179,0.971 C -1.211,0.99 -1.253,0.999 -1.295,0.999"
             style="fill:#394c65;fill-opacity:1;fill-rule:nonzero;stroke:none"
             id="path7490" />
        </g>
        <g
           id="g7492"
           transform="translate(372.2208,523.7476)">
          <path
             d="M 0,0 C 0.002,0.113 -0.058,0.218 -0.156,0.274 L -1.353,0.963 C -1.434,1.009 -1.534,1.009 -1.614,0.961 L -2.822,0.249 C -2.918,0.193 -2.977,0.088 -2.975,-0.023 l 0.019,-1.258 c 10e-4,-0.109 0.059,-0.209 0.153,-0.264 l 1.211,-0.715 c 0.063,-0.037 0.142,-0.038 0.206,-0.002 l 1.208,0.672 c 0.097,0.054 0.158,0.156 0.16,0.268 z"
             style="fill:#394c65;fill-opacity:1;fill-rule:nonzero;stroke:none"
             id="path7494" />
        </g>
        <g
           id="g7496"
           transform="translate(371.8991,523.5607)">
          <path
             d="M 0,0 C -0.014,0 -0.029,-0.005 -0.046,-0.015 L -0.942,-0.532 C -1,-0.566 -1.046,-0.646 -1.046,-0.713 v -0.962 c 0,-0.067 0.046,-0.094 0.104,-0.06 l 0.896,0.517 c 0.059,0.034 0.105,0.114 0.105,0.181 v 0.962 C 0.059,-0.026 0.035,0.001 0,0 Z M -2.335,0 C -2.37,0.001 -2.394,-0.026 -2.394,-0.075 v -0.962 c 0,-0.067 0.046,-0.147 0.105,-0.181 l 0.896,-0.517 c 0.058,-0.034 0.104,-0.007 0.104,0.06 v 0.962 c 0,0.067 -0.046,0.147 -0.104,0.181 l -0.896,0.517 C -2.306,-0.005 -2.321,0 -2.335,0 m 1.166,0.902 c -0.038,0 -0.076,-0.008 -0.105,-0.025 L -2.206,0.338 c -0.058,-0.033 -0.058,-0.087 0,-0.121 l 0.932,-0.539 c 0.058,-0.033 0.151,-0.033 0.209,0 l 0.932,0.539 c 0.058,0.034 0.058,0.088 0,0.121 l -0.932,0.539 c -0.029,0.017 -0.067,0.025 -0.104,0.025"
             style="fill:#ffffff;fill-opacity:1;fill-rule:nonzero;stroke:none"
             id="path7498" />
        </g>
      </g>
    </g>
  </g>
</svg>
